# xmcd
#
# Track frame offsets:
#	150
#	14831
#	32190
#	47743
#	64675
#	77743
#	96567
#	111625
#	131825
#	150731
#	166587
#	179589
#	199414
#	219429
#	232823
#	250181
#	272013
#	293500
#	310702
#	325786
#
# Disc length: 4562 seconds
#
# Revision: 0
# Processed by: cddbd v1.5.1PL2 Copyright (c) Steve Scherf et al.
# Submitted via: audiograbber 1.81.02
#
DISCID=2211d014
DTITLE=Billy *Bubba* King - Line Dance Hits 3
DYEAR=2004
DGENRE=Country
TTITLE0=C'est La Vie
TTITLE1=Who's Been Sleeping In My Bed
TTITLE2=Some Beach
TTITLE3=Double Xl
TTITLE4=Black Hose and The Cherry Tree
TTITLE5=The Way
TTITLE6=I Can't Be Bothered
TTITLE7=You Took The Words Right Out Of My Mouth
TTITLE8=Making Memories Of Us
TTITLE9=MR. Mom
TTITLE10=That Thing You Do
TTITLE11=Only In America
TTITLE12=Remember When
TTITLE13=Speak To The Sky
TTITLE14=The Heat Is On
TTITLE15=Ready To Fly
TTITLE16=Better Life
TTITLE17=Get It On
TTITLE18=You'er Like Coming Home
TTITLE19=Save The Last Dance For Me
EXTD=
EXTT0=
EXTT1=
EXTT2=
EXTT3=
EXTT4=
EXTT5=
EXTT6=
EXTT7=
EXTT8=
EXTT9=
EXTT10=
EXTT11=
EXTT12=
EXTT13=
EXTT14=
EXTT15=
EXTT16=
EXTT17=
EXTT18=
EXTT19=
PLAYORDER=
